# xmcd
#
# Track frame offsets:
# 150
# 16064
# 27573
# 38975
# 54881
# 66847
# 79357
# 91363
# 101003
# 112596
# 121472
# 135790
# 150169
# 168029
# 184628
# 193808
# 205720
# 220883
# 235004
# 247871
#
# Disc length: 3487 seconds
#
#
# Revision: 0
# Processed by: cddbd v1.5.2PL0 Copyright (c) Steve Scherf et al.
# Submitted via: FreeRIP 2.951 
#
DISCID=f20d9d14
DTITLE=CARREIRO and CARREIRINHO - SUPER SUCESSO
DYEAR=1960
DGENRE=SERTANEJAS RAIZ
TTITLE0=DERROTA DO BOI PALACIO
TTITLE1=ANTONIO PAULINO VIEIRA
TTITLE2=AMOR  A  PRIMEIRA VISTA
TTITLE3=BOI SOBERANO
TTITLE4=REQUINTA
TTITLE5=PASSAGEM DA MINHA VIDA
TTITLE6=CABELOS COR DE PRATA
TTITLE7=AMOR DESENCONTRADO
TTITLE8=REI DO GADO
TTITLE9=RACHINHO DE TAQUARA
TTITLE10=MEUS PARENTES
TTITLE11=PATRIÓTA
TTITLE12=MORTE DO CARREIRO
TTITLE13=REI DO CAFÉ
TTITLE14=O SOL
TTITLE15=ARREPENDEU TARDE
TTITLE16=MINHA VIDA
TTITLE17=MADALENA
TTITLE18=GOSTOSURA
TTITLE19=INFANCIA É UMA SÓ
EXTD=
EXTT0=
EXTT1=
EXTT2=
EXTT3=
EXTT4=
EXTT5=
EXTT6=
EXTT7=
EXTT8=
EXTT9=
EXTT10=
EXTT11=
EXTT12=
EXTT13=
EXTT14=
EXTT15=
EXTT16=
EXTT17=
EXTT18=
EXTT19=
PLAYORDER=
